Hit and Run (2012)
100 min  -  Action | Comedy | Romance  -   22 August 2012 (USA)

Former getaway driver Charlie Bronson jeopardizes his Witness Protection Plan identity in order to help his girlfriend get to Los Angeles. The feds and Charlie's former gang chase them on the road.

Directors:
David Palmer, Dax Shepard
Writer:
Dax Shepard (screenplay)
Stars:
Dax Shepard, Kristen Bell and Bradley Cooper



---------------


Hit.and.Run.2012.DVDrip.xvid.ac3-zi.avi:

Duration: 01:40:14.80, start: 0.000000, bitrate: 1794 kb/s

Stream #0:0: Video: mpeg4 (Simple Profile) (XVID / 0x44495658), yuv420p, 958x396 [SAR 1:1 DAR 479:198], 23.98 tbr, 23.98 tbn, 23.98 tbc

Stream #0:1: Audio: ac3 ([0] [0][0] / 0x2000), 48000 Hz, 5.1(side), s16, 192 kb/


---------------
